<?xml version="1.0" encoding="UTF-8"?>
<svg version="1.1" xmlns="http://www.w3.org/2000/svg" width="500" height="500">
<path d="M0 0 C-0.61277612 2.96175123 -1.25372522 4.38058783 -3 7 C-3.66 7 -4.32 7 -5 7 C-5.268125 7.556875 -5.53625 8.11375 -5.8125 8.6875 C-7.10899496 11.21225334 -8.42476323 13.63714484 -10 16 C-10.66 16 -11.32 16 -12 16 C-12 16.66 -12 17.32 -12 18 C-15.46366438 18.78900188 -18.62098112 19.1113745 -22.16992188 19.06591797 C-23.67673523 19.05128006 -23.67673523 19.05128006 -25.21398926 19.03634644 C-26.2880603 19.02177399 -27.36213135 19.00720154 -28.46875 18.9921875 C-30.75390184 18.97467525 -33.03905837 18.95776659 -35.32421875 18.94140625 C-38.91891456 18.91041325 -42.51337598 18.87482803 -46.10791016 18.82861328 C-49.58238671 18.7862938 -53.05658625 18.76284233 -56.53125 18.7421875 C-57.60532104 18.72356659 -58.67939209 18.70494568 -59.78601074 18.6857605 C-66.95425165 18.51768018 -66.95425165 18.51768018 -73 22 C-73.66666667 25 -73.66666667 25 -73 28 C-71.40245487 30.13749573 -70.51964725 30.905972 -67.87080383 31.38526917 C-67.04888046 31.39033981 -66.22695709 31.39541046 -65.38012695 31.40063477 C-64.44517899 31.41397354 -63.51023102 31.42731232 -62.54695129 31.4410553 C-61.03290962 31.44122902 -61.03290962 31.44122902 -59.48828125 31.44140625 C-58.44608932 31.45461411 -57.4038974 31.46782196 -56.3301239 31.48143005 C-52.99088933 31.52238665 -49.65192907 31.54399701 -46.3125 31.5625 C-42.99100962 31.58635055 -39.66977536 31.61462987 -36.34843445 31.65428162 C-34.28164046 31.6784661 -32.21471211 31.69346455 -30.14778137 31.69789124 C-21.17123386 31.79407278 -13.03583899 32.9864624 -6 39 C0.36096815 47.06142498 0.71752871 55.04818878 0 65 C-1.60627771 71.59903899 -6.43470273 76.33601425 -12 80 C-27.83017906 86.14294812 -48.52621167 83.12119137 -65.3717041 83.06866455 C-69.0596458 83.05828727 -72.74759467 83.0538366 -76.43554688 83.04882812 C-83.62371711 83.03822235 -90.81185246 83.02123978 -98 83 C-97.38722388 80.03824877 -96.74627478 78.61941217 -95 76 C-94.34 76 -93.68 76 -93 76 C-92.5978125 75.13375 -92.5978125 75.13375 -92.1875 74.25 C-90.97070811 71.94449957 -89.69666121 69.97943808 -88 68 C-87.34 68 -86.68 68 -86 68 C-86 67.34 -86 66.68 -86 66 C-85.34 66 -84.68 66 -84 66 C-84 65.34 -84 64.68 -84 64 C-83.2277005 63.99191315 -82.455401 63.98382629 -81.65969849 63.97549438 C-74.39039503 63.89763453 -67.12129481 63.81037048 -59.85223579 63.71247292 C-56.11490738 63.6624733 -52.37760774 63.61614389 -48.64013672 63.578125 C-45.03495675 63.54131805 -41.43001541 63.49497123 -37.82503891 63.44193649 C-36.44793752 63.42336798 -35.07078494 63.40826912 -33.69360733 63.39665604 C-31.76845599 63.37983626 -29.84343517 63.34966518 -27.91845703 63.31884766 C-26.82147491 63.30552399 -25.7244928 63.29220032 -24.5942688 63.2784729 C-21.8387819 63.25718157 -21.8387819 63.25718157 -20 61 C-19.71397838 56.85490567 -19.71397838 56.85490567 -21 53 C-28.32985103 50.40608231 -35.6208528 50.81728044 -43.3125 50.9375 C-45.99998044 50.95620532 -48.68746975 50.9643325 -51.375 50.97265625 C-53.32986328 50.98063232 -53.32986328 50.98063232 -55.32421875 50.98876953 C-78.94868351 51.06094842 -78.94868351 51.06094842 -85.26953125 45.8125 C-91.69124491 39.08637102 -94.14902651 34.41839012 -94.125 25 C-94.12757812 23.989375 -94.13015625 22.97875 -94.1328125 21.9375 C-94.00826727 19.18285256 -93.62110865 16.68161197 -93 14 C-92.34 14 -91.68 14 -91 14 C-90.773125 13.278125 -90.54625 12.55625 -90.3125 11.8125 C-88.02735935 6.91577003 -85.29292826 4.57495319 -80.36499023 2.38354492 C-73.20408456 0.12595184 -65.65447119 0.51757612 -58.22265625 0.48828125 C-56.60361899 0.47140817 -54.98459463 0.45325445 -53.36558533 0.43388367 C-49.12995443 0.38662221 -44.89437576 0.35666418 -40.65856934 0.33044434 C-36.33412266 0.30055325 -32.00985758 0.2540235 -27.68554688 0.20898438 C-7.01622194 0 -7.01622194 0 0 0 Z " fill="#010101" transform="translate(130,208)"/>
<path d="M0 0 C1.20085236 0.00539291 1.20085236 0.00539291 2.42596436 0.01089478 C3.26491745 0.01074875 4.10387054 0.01060272 4.96824646 0.01045227 C7.75487816 0.01115167 10.54144388 0.01894531 13.32806396 0.02676392 C15.25477563 0.028628 17.18148777 0.03005195 19.10820007 0.03105164 C24.18978169 0.03487758 29.27133491 0.04470851 34.35290527 0.05575562 C39.53407405 0.0659681 44.7152474 0.07054891 49.89642334 0.07559204 C60.07026597 0.08633071 70.24408005 0.10392812 80.41790771 0.12442017 C80.41790771 5.73442017 80.41790771 11.34442017 80.41790771 17.12442017 C76.69636462 18.05480594 73.89281121 18.24543376 70.08880615 18.23794556 C68.80778015 18.23787003 67.52675415 18.23779449 66.20690918 18.23771667 C64.81369996 18.23261043 63.42049114 18.22739444 62.02728271 18.22207642 C60.59810434 18.22021048 59.16892533 18.21878741 57.73974609 18.2177887 C53.98490624 18.21397732 50.23010529 18.20415884 46.47528076 18.19308472 C42.6410576 18.18284092 38.80682813 18.17828472 34.97259521 18.17324829 C27.45434834 18.1625353 19.93613349 18.14547548 12.41790771 18.12442017 C12.48855438 18.75792389 12.55920105 19.39142761 12.63198853 20.04412842 C13.19170668 25.29460094 13.54583658 30.45542649 13.55072021 35.74160767 C13.5521553 36.7382695 13.5521553 36.7382695 13.55361938 37.75506592 C13.55429137 39.13795061 13.5525068 40.52083865 13.54827881 41.90371704 C13.54286415 44.01641843 13.5482835 46.12891225 13.55462646 48.24160767 C13.55396651 49.5957748 13.55268706 50.9499418 13.55072021 52.30410767 C13.54959229 53.51824341 13.54846436 54.73237915 13.54730225 55.98330688 C13.41790771 59.12442017 13.41790771 59.12442017 12.41790771 63.12442017 C34.85790771 63.12442017 57.29790771 63.12442017 80.41790771 63.12442017 C80.41790771 69.06442017 80.41790771 75.00442017 80.41790771 81.12442017 C51.70790771 81.12442017 22.99790771 81.12442017 -6.58209229 81.12442017 C-6.60271729 67.94504517 -6.62334229 54.76567017 -6.64459229 41.18692017 C-6.65369629 37.01946167 -6.66280029 32.85200317 -6.67218018 28.55825806 C-6.67669678 23.48464966 -6.67669678 23.48464966 -6.67753601 21.11244202 C-6.67907556 19.44914991 -6.6826007 17.78585895 -6.68766785 16.12257385 C-6.69494537 13.60892791 -6.6959997 11.09535039 -6.69561768 8.58169556 C-6.69921578 7.83582467 -6.70281389 7.08995378 -6.70652103 6.32148075 C-6.69368102 0.04733805 -6.23212727 0.0118168 0 0 Z " fill="#010101" transform="translate(143.58209228515625,208.87557983398438)"/>
<path d="M0 0 C7.92 0 15.84 0 24 0 C24.33 0.99 24.66 1.98 25 3 C25.66 3 26.32 3 27 3 C28.2890625 4.6796875 28.2890625 4.6796875 29.625 6.875 C30.07101562 7.59429687 30.51703125 8.31359375 30.9765625 9.0546875 C32 11 32 11 32 13 C32.66 13 33.32 13 34 13 C34.66 14.65 35.32 16.3 36 18 C36.66 18 37.32 18 38 18 C39.21485385 19.72421427 40.34818704 21.50634884 41.4375 23.3125 C43.40032647 26.55561502 45.16518263 29.45993428 48 32 C49.62592707 29.93822556 51.25070888 27.87556277 52.875 25.8125 C53.36734131 25.18843262 53.85968262 24.56436523 54.36694336 23.92138672 C56.90545728 20.69600943 59.42110506 17.45731674 61.88671875 14.17578125 C62.33740723 13.57854248 62.7880957 12.98130371 63.25244141 12.3659668 C64.11548226 11.21905209 64.97337668 10.06824383 65.82568359 8.91333008 C66.83724777 7.57247305 67.91305443 6.28051122 69 5 C69.66 5 70.32 5 71 5 C71.4640625 4.0409375 71.4640625 4.0409375 71.9375 3.0625 C73 1 73 1 74 0 C75.78071246 -0.08726223 77.5648314 -0.10699041 79.34765625 -0.09765625 C80.42724609 -0.09443359 81.50683594 -0.09121094 82.61914062 -0.08789062 C84.32360352 -0.07532227 84.32360352 -0.07532227 86.0625 -0.0625 C87.77276367 -0.05573242 87.77276367 -0.05573242 89.51757812 -0.04882812 C92.34510351 -0.03699747 95.1725264 -0.0205141 98 0 C97 2 96 4 95 6 C94.34 6 93.68 6 93 6 C92.76410156 6.54398438 92.52820313 7.08796875 92.28515625 7.6484375 C90.65860629 10.62467785 88.61741527 13.02869642 86.4375 15.625 C83.41267744 19.11066681 83.41267744 19.11066681 81 23 C80.34 23 79.68 23 79 23 C79 23.66 79 24.32 79 25 C78.34 25 77.68 25 77 25 C76.7628125 25.53109375 76.525625 26.0621875 76.28125 26.609375 C74.62621616 29.69742595 72.59451872 32.4528472 70.5 35.25 C69.89478516 36.08144531 69.89478516 36.08144531 69.27734375 36.9296875 C68.23549829 38.32569165 67.12254588 39.66802392 66 41 C65.34 41 64.68 41 64 41 C63.7525 41.53625 63.505 42.0725 63.25 42.625 C62 45 62 45 59.95996094 47.70166016 C57.69899882 51.50654284 57.46569429 53.7568842 57.390625 58.1484375 C57.37408875 58.80582916 57.35755249 59.46322083 57.34051514 60.14053345 C57.29233397 62.21878676 57.27073386 64.29631026 57.25 66.375 C57.22181484 67.79300488 57.19188387 69.21097621 57.16015625 70.62890625 C57.08332609 74.0862633 57.04254151 77.54137538 57 81 C50.4 81 43.8 81 37 81 C37 71.1 37 61.2 37 51 C36.34 51 35.68 51 35 51 C33.7109375 49.3203125 33.7109375 49.3203125 32.375 47.125 C31.92898438 46.40570313 31.48296875 45.68640625 31.0234375 44.9453125 C30 43 30 43 30 41 C29.34 41 28.68 41 28 41 C26.4921875 39.1015625 26.4921875 39.1015625 24.875 36.625 C24.06675781 35.40683594 24.06675781 35.40683594 23.2421875 34.1640625 C22 32 22 32 22 30 C21.34 30 20.68 30 20 30 C18.33295001 27.86521656 16.77988045 25.73011018 15.25 23.5 C14.35243258 22.21293445 13.45399826 20.92647303 12.5546875 19.640625 C12.11866211 19.01478516 11.68263672 18.38894531 11.23339844 17.74414062 C9.23082165 14.91230995 7.10544734 12.17819276 4.9609375 9.453125 C4 8 4 8 4 6 C3.34 6 2.68 6 2 6 C0 3 0 3 0 0 Z " fill="#010101" transform="translate(371,209)"/>
<path d="M0 0 C0.94412765 4.77607159 1.14818972 9.41413759 1.14526367 14.26513672 C1.14862228 15.07246246 1.1519809 15.87978821 1.15544128 16.71157837 C1.16490263 19.36763061 1.16689192 22.02361948 1.16796875 24.6796875 C1.17118451 26.53524806 1.17454882 28.39080837 1.17805481 30.24636841 C1.18403391 34.13153674 1.18589595 38.01668286 1.18530273 41.90185547 C1.18520114 46.86699663 1.19885569 51.8319947 1.21607494 56.79710197 C1.22722218 60.62851611 1.22922111 64.45989593 1.22869301 68.29132462 C1.22986892 70.12125263 1.23426879 71.95118165 1.24202538 73.7810936 C1.25188106 76.34618765 1.24892543 78.91097466 1.24291992 81.47607422 C1.24853943 82.22334778 1.25415894 82.97062134 1.25994873 83.74053955 C1.19327148 95.01291672 -2.66828315 103.86392797 -10.5625 111.875 C-17.93010753 119 -17.93010753 119 -21 119 C-21.75116092 112.44305233 -22.16177717 105.97680762 -22.19628906 99.37866211 C-22.20435074 98.47482285 -22.21241241 97.57098358 -22.22071838 96.63975525 C-22.28466409 88.38563076 -22.28266818 80.13106409 -22.26091385 71.87676144 C-22.24670869 66.34739474 -22.253956 60.81989209 -22.31201172 55.29077148 C-22.36800688 49.91629052 -22.37018183 44.5442491 -22.3347702 39.16961861 C-22.3303718 37.13114255 -22.34477151 35.09253154 -22.37879181 33.05433464 C-22.63627511 16.33874504 -22.63627511 16.33874504 -18.53259277 11.69656372 C-11.75791215 6 -11.75791215 6 -8 6 C-8 5.34 -8 4.68 -8 4 C-3.64705882 0 -3.64705882 0 0 0 Z " fill="#50A1A7" transform="translate(284,212)"/>
<path d="M0 0 C0.16259206 9.24926043 0.28677019 18.49802483 0.3626852 27.74840546 C0.39913162 32.04437436 0.44852028 36.33936163 0.52807617 40.63476562 C0.60444942 44.78456687 0.64605485 48.93342747 0.6641407 53.08387756 C0.67701936 54.6627533 0.70216975 56.24158075 0.7401104 57.8200531 C1.0609485 71.72836007 1.0609485 71.72836007 -3.3737793 76.88110352 C-5.22880554 78.59352112 -5.22880554 78.59352112 -7 80 C-7.89203125 80.80308594 -8.7840625 81.60617188 -9.703125 82.43359375 C-10.54359375 83.09488281 -11.3840625 83.75617188 -12.25 84.4375 C-17.14355673 88.31719829 -21.92993662 92.30234436 -26.6875 96.34765625 C-29 98 -29 98 -32 98 C-32.08725659 93.7709638 -32.1404789 89.54215988 -32.1875 85.3125 C-32.21263672 84.11431641 -32.23777344 82.91613281 -32.26367188 81.68164062 C-32.27333984 80.52470703 -32.28300781 79.36777344 -32.29296875 78.17578125 C-32.3086792 77.11270752 -32.32438965 76.04963379 -32.34057617 74.9543457 C-31.84582749 70.66262253 -30.19109416 68.03395171 -26.95703125 65.2265625 C-25.89548828 64.43378906 -25.89548828 64.43378906 -24.8125 63.625 C-21.29841035 60.70809419 -21.29841035 60.70809419 -20.5 56.0625 C-20.665 55.051875 -20.83 54.04125 -21 53 C-22.32 53.66 -23.64 54.32 -25 55 C-25 55.66 -25 56.32 -25 57 C-28.46153846 60 -28.46153846 60 -31 60 C-31.89257751 53.06092965 -32.21390331 46.24373338 -32.25 39.25 C-32.270625 38.23550781 -32.29125 37.22101563 -32.3125 36.17578125 C-32.35039822 28.9656449 -31.34915182 25.57833737 -26.4375 20.1875 C-24 18 -24 18 -22 18 C-22 17.34 -22 16.68 -22 16 C-20.13671875 14.30859375 -20.13671875 14.30859375 -17.6875 12.4375 C-16.88699219 11.81746094 -16.08648437 11.19742188 -15.26171875 10.55859375 C-13 9 -13 9 -10 8 C-10 7.34 -10 6.68 -10 6 C-8.3203125 4.4921875 -8.3203125 4.4921875 -6.125 2.875 C-5.40570313 2.33617188 -4.68640625 1.79734375 -3.9453125 1.2421875 C-2 0 -2 0 0 0 Z " fill="#50A4AA" transform="translate(294,115)"/>
<path d="M0 0 C0.99 0 1.98 0 3 0 C3.13358683 7.79184907 3.26408915 15.58374404 3.39115143 23.3757019 C3.45030423 26.99788869 3.51033591 30.62005539 3.57275391 34.2421875 C3.83177268 49.31754012 4.05124326 64.39275648 4.08811951 79.47052002 C4.0935828 81.50037636 4.10342396 83.53021944 4.11340332 85.56005859 C4.12254893 104.32197029 4.12254893 104.32197029 -0.4375 111.0625 C-1.36369141 112.47208984 -1.36369141 112.47208984 -2.30859375 113.91015625 C-3.14583984 114.94462891 -3.14583984 114.94462891 -4 116 C-4.66 116 -5.32 116 -6 116 C-6 116.66 -6 117.32 -6 118 C-8.475 118.99 -8.475 118.99 -11 120 C-11 120.66 -11 121.32 -11 122 C-13.97 122.99 -13.97 122.99 -17 124 C-17.09348304 110.00496879 -17.16373251 96.00998606 -17.20724869 82.01470661 C-17.22813313 75.51628613 -17.2564671 69.01807524 -17.30175781 62.51977539 C-17.34518397 56.24984359 -17.36913065 49.98011353 -17.37950897 43.71004295 C-17.38690607 41.31659964 -17.40135063 38.9231675 -17.42292023 36.52980995 C-17.45191031 33.18019275 -17.45595771 29.8314117 -17.45410156 26.48168945 C-17.46848267 25.48978607 -17.48286377 24.49788269 -17.49768066 23.47592163 C-17.47187132 19.1783113 -17.43972242 16.71140893 -15.14202881 12.99406433 C-12.62805927 10.65375174 -10.06578297 8.44844497 -7.375 6.3125 C-3.56498727 3.29292284 -3.56498727 3.29292284 0 0 Z " fill="#4F9EA4" transform="translate(251,235)"/>
<path d="M0 0 C3.93711437 -0.14492719 7.87354625 -0.23394537 11.8125 -0.3125 C13.49182617 -0.3753418 13.49182617 -0.3753418 15.20507812 -0.43945312 C16.81479492 -0.46362305 16.81479492 -0.46362305 18.45703125 -0.48828125 C19.44678955 -0.51446533 20.43654785 -0.54064941 21.45629883 -0.56762695 C24 0 24 0 25.84643555 2.40551758 C27 5 27 5 27 7 C27.66 7 28.32 7 29 7 C29.66 8.98 30.32 10.96 31 13 C31.66 13 32.32 13 33 13 C34.29345703 14.62963867 34.29345703 14.62963867 35.7578125 16.91796875 C36.29704346 17.75392578 36.83627441 18.58988281 37.3918457 19.45117188 C37.96378662 20.35416016 38.53572754 21.25714844 39.125 22.1875 C39.71176514 23.10208984 40.29853027 24.01667969 40.90307617 24.95898438 C44.74158625 30.96019171 48.49018767 37.01186053 52.19921875 43.09375 C56.46439756 49.977249 61.06782681 56.64324453 65.65234375 63.31640625 C66.95586529 65.23167819 68.25924981 67.14704341 69.5625 69.0625 C70.20719238 69.99191406 70.85188477 70.92132813 71.51611328 71.87890625 C72.11020996 72.75546875 72.70430664 73.63203125 73.31640625 74.53515625 C73.85724854 75.322854 74.39809082 76.11055176 74.95532227 76.92211914 C75.30006592 77.60781982 75.64480957 78.29352051 76 79 C75.505 80.485 75.505 80.485 75 82 C71.41694008 82.11627503 67.83436583 82.1872736 64.25 82.25 C63.23421875 82.28351563 62.2184375 82.31703125 61.171875 82.3515625 C53.6508686 82.45052311 53.6508686 82.45052311 50.5 80.26953125 C50.005 79.52058594 49.51 78.77164063 49 78 C48.43796875 77.25621094 47.8759375 76.51242187 47.296875 75.74609375 C46.78640625 74.98425781 46.2759375 74.22242188 45.75 73.4375 C45.22921875 72.67308594 44.7084375 71.90867187 44.171875 71.12109375 C43 69 43 69 43 66 C42.34 66 41.68 66 41 66 C38 60.25 38 60.25 38 58 C37.34 58 36.68 58 36 58 C35.75507813 57.52433594 35.51015625 57.04867187 35.2578125 56.55859375 C30.21422234 47.11490596 24.05164651 38.33345996 17.90625 29.58203125 C17.4004541 28.85830322 16.8946582 28.1345752 16.37353516 27.38891602 C15.39004619 25.98514495 14.40032148 24.58571789 13.40380859 23.19116211 C10 18.33306613 10 18.33306613 10 15 C9.34 15 8.68 15 8 15 C6.4921875 13.1015625 6.4921875 13.1015625 4.875 10.625 C4.33617187 9.81289062 3.79734375 9.00078125 3.2421875 8.1640625 C2 6 2 6 2 4 C1.34 4 0.68 4 0 4 C0 2.68 0 1.36 0 0 Z " fill="#010101" transform="translate(322,209)"/>
<path d="M0 0 C0.66 0.33 1.32 0.66 2 1 C2.09300294 9.71059032 2.16391756 18.42100764 2.20724869 27.13198757 C2.2280538 31.17760798 2.25624026 35.22288672 2.30175781 39.26831055 C2.34547058 43.17815026 2.36919022 47.08766297 2.37950897 50.99772835 C2.38685506 52.48357345 2.40119959 53.96940224 2.42292023 55.45510674 C2.55630373 64.96357332 2.10501872 72.65654736 -3.8515625 80.41015625 C-4.43679687 80.95542969 -5.02203125 81.50070312 -5.625 82.0625 C-6.21539062 82.63097656 -6.80578125 83.19945312 -7.4140625 83.78515625 C-9 85 -9 85 -11 85 C-11 85.66 -11 86.32 -11 87 C-11.66 87 -12.32 87 -13 87 C-13 87.66 -13 88.32 -13 89 C-13.66 89 -14.32 89 -15 89 C-15 89.66 -15 90.32 -15 91 C-16.98 91.495 -16.98 91.495 -19 92 C-19.04630689 82.53381062 -19.08186079 73.06766012 -19.10362434 63.60138226 C-19.11406888 59.20597526 -19.12824027 54.81064565 -19.15087891 50.4152832 C-19.17258344 46.17482045 -19.18456358 41.93443223 -19.18975449 37.69391823 C-19.19345454 36.07476439 -19.20067969 34.45561471 -19.21146011 32.83649254 C-19.22594339 30.5714875 -19.22797929 28.30679182 -19.22705078 26.04174805 C-19.231492 24.75157272 -19.23593323 23.4613974 -19.24050903 22.13212585 C-19 19 -19 19 -17 16 C-16.34 16 -15.68 16 -15 16 C-14.731875 15.360625 -14.46375 14.72125 -14.1875 14.0625 C-13 12 -13 12 -10 11 C-10 10.34 -10 9.68 -10 9 C-9.34 9 -8.68 9 -8 9 C-8 8.34 -8 7.68 -8 7 C-7.34 7 -6.68 7 -6 7 C-6 6.34 -6 5.68 -6 5 C-5.34 5 -4.68 5 -4 5 C-4 4.34 -4 3.68 -4 3 C-3.34 3 -2.68 3 -2 3 C-2 2.34 -2 1.68 -2 1 C-1.34 0.67 -0.68 0.34 0 0 Z " fill="#47898F" transform="translate(224,295)"/>
<path d="M0 0 C0.66 0 1.32 0 2 0 C2.16237528 9.41418965 2.28666092 18.8278955 2.3626852 28.24318123 C2.3991785 32.61542433 2.44865407 36.9867077 2.52807617 41.35839844 C2.60428048 45.57951115 2.64601966 49.79970244 2.6641407 54.02145004 C2.67704944 55.62988668 2.70225908 57.23827428 2.7401104 58.84631729 C3.02440526 71.42738606 3.02440526 71.42738606 0.46536255 75.355896 C-1.93222481 77.49334483 -3.72307791 79 -7 79 C-7 79.66 -7 80.32 -7 81 C-11.47058824 85 -11.47058824 85 -14 85 C-14 85.66 -14 86.32 -14 87 C-15.98 87.495 -15.98 87.495 -18 88 C-18.09314049 80.21939019 -18.1639863 72.43891373 -18.20724869 64.6578846 C-18.22802442 61.04385655 -18.25615513 57.43021305 -18.30175781 53.81640625 C-18.34557814 50.32152463 -18.36921218 46.82701024 -18.37950897 43.33187485 C-18.39037481 41.36558659 -18.42154181 39.39944377 -18.45318604 37.43338013 C-18.45575612 27.05082083 -16.23346927 19.37622433 -10 11 C-9.34 10.0925 -8.68 9.185 -8 8.25 C-6.0402466 6.04527743 -4.63896035 5.18414888 -2 4 C-0.73195434 1.9664052 -0.73195434 1.9664052 0 0 Z " fill="#51A7AD" transform="translate(252,147)"/>
<path d="M0 0 C4.16440584 1.52882467 5.83945364 4.19221648 8.25 7.8125 C8.95640625 8.85019531 9.6628125 9.88789063 10.390625 10.95703125 C12.04226689 14.07991726 12.52270498 15.55014711 12 19 C10.125 22.3125 10.125 22.3125 8 25 C7.34 25 6.68 25 6 25 C5.7525 25.70125 5.505 26.4025 5.25 27.125 C3.82819762 30.39514548 2.12753712 33.141122 0 36 C-0.66 36 -1.32 36 -2 36 C-2.38671875 37.07314453 -2.38671875 37.07314453 -2.78125 38.16796875 C-4.07384765 41.17160111 -5.6277709 43.63505372 -7.5 46.3125 C-8.1084375 47.19550781 -8.716875 48.07851563 -9.34375 48.98828125 C-9.8903125 49.65214844 -10.436875 50.31601562 -11 51 C-11.66 51 -12.32 51 -13 51 C-13.28875 51.763125 -13.5775 52.52625 -13.875 53.3125 C-15 56 -15 56 -17 59 C-18.9453125 59.29296875 -18.9453125 59.29296875 -21.125 59.1875 C-22.40375 59.125625 -23.6825 59.06375 -25 59 C-25.11643304 55.10441912 -25.18732909 51.20928742 -25.25 47.3125 C-25.28351563 46.20970703 -25.31703125 45.10691406 -25.3515625 43.97070312 C-25.45111403 35.73281406 -25.45111403 35.73281406 -23.2109375 32.09375 C-22.48132813 31.4028125 -21.75171875 30.711875 -21 30 C-19.14739523 27.10383938 -17.36556476 24.17190507 -15.5859375 21.23046875 C-15.06257813 20.49441406 -14.53921875 19.75835937 -14 19 C-13.34 19 -12.68 19 -12 19 C-11.62875 17.948125 -11.62875 17.948125 -11.25 16.875 C-9.82819762 13.60485452 -8.12753712 10.858878 -6 8 C-5.34 8 -4.68 8 -4 8 C-3.71125 7.236875 -3.4225 6.47375 -3.125 5.6875 C-2 3 -2 3 0 0 Z " fill="#010101" transform="translate(323,231)"/>
<path d="M0 0 C14.52 0 29.04 0 44 0 C44 6.27 44 12.54 44 19 C29.48 19 14.96 19 0 19 C0 12.73 0 6.46 0 0 Z " fill="#010101" transform="translate(165,240)"/>
<path d="M0 0 C3.15972507 0.29177641 3.99855543 0.99835772 6.140625 3.43359375 C7.18476563 4.92052734 7.18476563 4.92052734 8.25 6.4375 C8.95640625 7.42621094 9.6628125 8.41492188 10.390625 9.43359375 C12 12 12 12 12 14 C12.66 14 13.32 14 14 14 C14 14.99 14 15.98 14 17 C5.75 17 -2.5 17 -11 17 C-10.34 15.35 -9.68 13.7 -9 12 C-8.34 12 -7.68 12 -7 12 C-6.773125 11.319375 -6.54625 10.63875 -6.3125 9.9375 C-4.64427643 6.20385676 -2.44270392 3.27836579 0 0 Z " fill="#020202" transform="translate(339,258)"/>
<path d="M0 0 C0.66 0.33 1.32 0.66 2 1 C0.25 4.875 0.25 4.875 -2 6 C-2.33 39.66 -2.66 73.32 -3 108 C-0.525 107.505 -0.525 107.505 2 107 C2 106.34 2 105.68 2 105 C2.99 105 3.98 105 5 105 C5.495 104.01 5.495 104.01 6 103 C7.00945726 101.45086061 8.03179879 99.91008691 9.0625 98.375 C9.61035156 97.55773437 10.15820312 96.74046875 10.72265625 95.8984375 C11.14417969 95.27195312 11.56570312 94.64546875 12 94 C11.34 93.67 10.68 93.34 10 93 C10.66 93 11.32 93 12 93 C12.28875 92.236875 12.5775 91.47375 12.875 90.6875 C14 88 14 88 16 85 C16.87707033 92.64304144 14.95881376 96.56177935 10.7265625 102.91015625 C9.87191406 103.94462891 9.87191406 103.94462891 9 105 C8.34 105 7.68 105 7 105 C7 105.66 7 106.32 7 107 C4.525 107.99 4.525 107.99 2 109 C2 109.66 2 110.32 2 111 C-0.97 111.99 -0.97 111.99 -4 113 C-4.09348304 99.00496879 -4.16373251 85.00998606 -4.20724869 71.01470661 C-4.22813313 64.51628613 -4.2564671 58.01807524 -4.30175781 51.51977539 C-4.34518397 45.24984359 -4.36913065 38.98011353 -4.37950897 32.71004295 C-4.38690607 30.31659964 -4.40135063 27.9231675 -4.42292023 25.52980995 C-4.45191031 22.18019275 -4.45595771 18.8314117 -4.45410156 15.48168945 C-4.46848267 14.48978607 -4.48286377 13.49788269 -4.49768066 12.47592163 C-4.47088173 8.0135312 -4.43542627 5.67729663 -1.97161865 1.84489441 C-1.3209845 1.23607925 -0.67035034 0.6272641 0 0 Z " fill="#3C6B6E" transform="translate(238,246)"/>
<path d="M0 0 C0.66 0.33 1.32 0.66 2 1 C2 23.44 2 45.88 2 69 C1.34 69 0.68 69 0 69 C0 48.87 0 28.74 0 8 C-1.65 7.67 -3.3 7.34 -5 7 C-4.67 5.68 -4.34 4.36 -4 3 C-3.34 3 -2.68 3 -2 3 C-2 2.34 -2 1.68 -2 1 C-1.34 0.67 -0.68 0.34 0 0 Z " fill="#386569" transform="translate(224,295)"/>
<path d="M0 0 C0.66 0 1.32 0 2 0 C2 24.09 2 48.18 2 73 C1.67 73 1.34 73 1 73 C0.67 51.22 0.34 29.44 0 7 C-0.66 7 -1.32 7 -2 7 C-3.35386936 8.65002828 -4.68678142 10.3174387 -6 12 C-6.99 12.495 -6.99 12.495 -8 13 C-8.66 12.34 -9.32 11.68 -10 11 C-9.04882866 9.8274869 -8.08882991 8.66212985 -7.125 7.5 C-6.32449219 6.52546875 -6.32449219 6.52546875 -5.5078125 5.53125 C-5.01023438 5.0259375 -4.51265625 4.520625 -4 4 C-3.34 4 -2.68 4 -2 4 C-1.34 2.68 -0.68 1.36 0 0 Z " fill="#589699" transform="translate(252,147)"/>
<path d="M0 0 C0.33 0 0.66 0 1 0 C1.13358683 7.79184907 1.26408915 15.58374404 1.39115143 23.3757019 C1.45030423 26.99788869 1.51033591 30.62005539 1.57275391 34.2421875 C1.92666185 54.83020235 2.06813391 75.40888434 2 96 C1.67 96 1.34 96 1 96 C0.96241577 95.07272095 0.96241577 95.07272095 0.92407227 94.12670898 C0.80552461 91.23022139 0.68401311 88.33386465 0.5625 85.4375 C0.52318359 84.46619141 0.48386719 83.49488281 0.44335938 82.49414062 C0.18237713 76.20504687 0.18237713 76.20504687 -0.27368164 69.92797852 C-1.42277566 56.66240204 -0.89089962 43.37947641 -0.60510254 30.08343506 C-0.53343975 26.68397019 -0.46921643 23.28436477 -0.40429688 19.88476562 C-0.2762522 13.25636324 -0.1409976 6.62813884 0 0 Z " fill="#497E84" transform="translate(253,235)"/>
<path d="M0 0 C0.66 0 1.32 0 2 0 C3 3 3 3 2 6 C2.66 6.33 3.32 6.66 4 7 C2.58653438 8.44064765 1.16908789 9.87739015 -0.25 11.3125 C-1.03890625 12.11300781 -1.8278125 12.91351563 -2.640625 13.73828125 C-8.12953368 19 -8.12953368 19 -11 19 C-11.69260358 12.96445452 -12.11251733 7.07593562 -12 1 C-11.34 1 -10.68 1 -10 1 C-9.9175 2.258125 -9.835 3.51625 -9.75 4.8125 C-9.33442857 8.33811212 -9.33442857 8.33811212 -6.9375 11 C-6.298125 11.33 -5.65875 11.66 -5 12 C-2.03162219 7.97832683 -0.47610659 4.99911924 0 0 Z " fill="#4A8286" transform="translate(274,312)"/>
<path d="M0 0 C0.33 0 0.66 0 1 0 C1.14324713 4.34160722 1.28563878 8.6832414 1.42724609 13.02490234 C1.47551479 14.50114699 1.52401512 15.97738408 1.57275391 17.45361328 C1.64286574 19.57843095 1.71213796 21.70327461 1.78125 23.828125 C1.82314453 25.1059082 1.86503906 26.38369141 1.90820312 27.70019531 C1.9758731 30.13271486 2 32.56653938 2 35 C2.66 35 3.32 35 4 35 C4.33 34.01 4.66 33.02 5 32 C7.375 30.25 7.375 30.25 10 29 C10.99 29.33 11.98 29.66 13 30 C11.625 31.5 11.625 31.5 10 33 C9.34 33 8.68 33 8 33 C8 33.66 8 34.32 8 35 C7.34 35 6.68 35 6 35 C6 35.66 6 36.32 6 37 C5.34 37 4.68 37 4 37 C4 37.66 4 38.32 4 39 C2.02 39.495 2.02 39.495 0 40 C0 26.8 0 13.6 0 0 Z " fill="#40686D" transform="translate(205,347)"/>
<path d="M0 0 C0.33 0 0.66 0 1 0 C1 19.14 1 38.28 1 58 C1.99 58.33 2.98 58.66 4 59 C2.68 59.66 1.36 60.32 0 61 C0 40.87 0 20.74 0 0 Z " fill="#3E787B" transform="translate(234,174)"/>
<path d="M0 0 C0.66 0.33 1.32 0.66 2 1 C0.25 4.875 0.25 4.875 -2 6 C-2.33 20.19 -2.66 34.38 -3 49 C-3.33 49 -3.66 49 -4 49 C-4.09898364 42.82532414 -4.1715236 36.65111157 -4.21972656 30.47583008 C-4.23982397 28.37581333 -4.26710666 26.27585242 -4.30175781 24.17602539 C-4.3503577 21.15497042 -4.37298762 18.13465623 -4.390625 15.11328125 C-4.41127014 14.17664139 -4.43191528 13.24000153 -4.45318604 12.27497864 C-4.4546943 7.87915615 -4.41600986 5.64363127 -1.97558594 1.86791992 C-1.32364258 1.25150635 -0.67169922 0.63509277 0 0 Z " fill="#3C757B" transform="translate(238,246)"/>
<path d="M0 0 C0 4.72464314 -2.93987776 7.56601667 -6 11 C-8.47872017 13.04814437 -11.12272756 14.56136378 -14 16 C-14.66 15.34 -15.32 14.68 -16 14 C-14.71034824 12.62437146 -13.37310707 11.29233607 -12 10 C-11.34 10 -10.68 10 -10 10 C-10 9.34 -10 8.68 -10 8 C-8.06640625 6.30859375 -8.06640625 6.30859375 -5.5625 4.4375 C-2.67307373 2.34532911 -2.67307373 2.34532911 0 0 Z " fill="#48848A" transform="translate(282,123)"/>
<path d="M0 0 C0.66 0 1.32 0 2 0 C1.67 2.31 1.34 4.62 1 7 C0.01 7 -0.98 7 -2 7 C-3.37868281 8.62935241 -4.71274093 10.29749607 -6 12 C-6.99 12.495 -6.99 12.495 -8 13 C-8.66 12.34 -9.32 11.68 -10 11 C-9.04882866 9.8274869 -8.08882991 8.66212985 -7.125 7.5 C-6.32449219 6.52546875 -6.32449219 6.52546875 -5.5078125 5.53125 C-5.01023438 5.0259375 -4.51265625 4.520625 -4 4 C-3.34 4 -2.68 4 -2 4 C-1.34 2.68 -0.68 1.36 0 0 Z " fill="#46828E" transform="translate(252,147)"/>
<path d="M0 0 C0.33 0 0.66 0 1 0 C1.33 8.25 1.66 16.5 2 25 C1.01 25 0.02 25 -1 25 C-1.0271045 21.95827281 -1.04688964 18.91679003 -1.0625 15.875 C-1.07087891 15.0190625 -1.07925781 14.163125 -1.08789062 13.28125 C-1.10538306 8.73321589 -0.93192358 4.47616836 0 0 Z " fill="#51868C" transform="translate(263,188)"/>
<path d="M0 0 C0.99 0.33 1.98 0.66 3 1 C3 2.65 3 4.3 3 6 C3.99 6 4.98 6 6 6 C6.99 6 7.98 6 9 6 C9 6.66 9 7.32 9 8 C8.34 8 7.68 8 7 8 C7 8.66 7 9.32 7 10 C3.53846154 13 3.53846154 13 1 13 C0.83052421 11.58366664 0.66454493 10.16691467 0.5 8.75 C0.4071875 7.96109375 0.314375 7.1721875 0.21875 6.359375 C0 4 0 4 0 0 Z " fill="#51848A" transform="translate(262,162)"/>
<path d="M0 0 C0 0.99 0 1.98 0 3 C-0.99 3 -1.98 3 -3 3 C-3 3.99 -3 4.98 -3 6 C-3.66 6.66 -4.32 7.32 -5 8 C-5.99 9.485 -5.99 9.485 -7 11 C-8.65 10.67 -10.3 10.34 -12 10 C-4.04545455 0 -4.04545455 0 0 0 Z " fill="#4E9195" transform="translate(253,235)"/>
<path d="M0 0 C0.33 0 0.66 0 1 0 C1.57433809 9.76374745 1.57433809 9.76374745 -2 14 C-2.99 14.33 -3.98 14.66 -5 15 C-4.34 13.02 -3.68 11.04 -3 9 C-3.66 8.67 -4.32 8.34 -5 8 C-4.34 8 -3.68 8 -3 8 C-1.92474806 5.34771188 -0.90543849 2.71631546 0 0 Z " fill="#43797D" transform="translate(253,331)"/>
<path d="M0 0 C0.66 0 1.32 0 2 0 C3 3 3 3 2 6 C2.66 6.33 3.32 6.66 4 7 C1.69 9.31 -0.62 11.62 -3 14 C-4 11 -4 11 -3.22265625 9.0625 C-2.64837891 8.0415625 -2.64837891 8.0415625 -2.0625 7 C-0.53230261 4.26120603 0 3.22224436 0 0 Z " fill="#3D777C" transform="translate(274,312)"/>
<path d="M0 0 C0.33 0 0.66 0 1 0 C1.82200425 6.24723226 -1.07448606 10.71317837 -4 16 C-4.33 16 -4.66 16 -5 16 C-5 14.35 -5 12.7 -5 11 C-4.34 11 -3.68 11 -3 11 C-2.87625 9.741875 -2.7525 8.48375 -2.625 7.1875 C-2.30131941 3.89674737 -1.93395001 2.90092502 0 0 Z " fill="#46767A" transform="translate(283,302)"/>
<path d="M0 0 C0.66 0.33 1.32 0.66 2 1 C0.64458676 5.06623972 -1.57009469 6.53046818 -5 9 C-5.99 8.67 -6.98 8.34 -8 8 C-8 7.34 -8 6.68 -8 6 C-6.25 4.4921875 -6.25 4.4921875 -4 2.875 C-3.2575 2.33617187 -2.515 1.79734375 -1.75 1.2421875 C-1.1725 0.83226562 -0.595 0.42234375 0 0 Z " fill="#4B8F94" transform="translate(271,221)"/>
<path d="M0 0 C1 3 1 3 -0.75 6.5625 C-2.34738472 9.33408171 -3.19678044 10.13118696 -6 12 C-6.33 10.68 -6.66 9.36 -7 8 C-6.34 7.67 -5.68 7.34 -5 7 C-4.67 6.01 -4.34 5.02 -4 4 C-3.01 4 -2.02 4 -1 4 C-0.67 2.68 -0.34 1.36 0 0 Z " fill="#366567" transform="translate(224,364)"/>
<path d="M0 0 C-1.375 1.5 -1.375 1.5 -3 3 C-3.66 3 -4.32 3 -5 3 C-5 3.66 -5 4.32 -5 5 C-5.66 5 -6.32 5 -7 5 C-7 5.66 -7 6.32 -7 7 C-8.32 6.34 -9.64 5.68 -11 5 C-10.34 5 -9.68 5 -9 5 C-8.67 4.01 -8.34 3.02 -8 2 C-3.63934426 -1.21311475 -3.63934426 -1.21311475 0 0 Z " fill="#305859" transform="translate(218,377)"/>
<path d="M0 0 C0.66 0.33 1.32 0.66 2 1 C0.47793991 3.62901288 -0.84365964 5.84365964 -3 8 C-5.125 7.625 -5.125 7.625 -7 7 C-6.01 6.67 -5.02 6.34 -4 6 C-4 5.34 -4 4.68 -4 4 C-3.34 4 -2.68 4 -2 4 C-2 3.34 -2 2.68 -2 2 C-1.34 2 -0.68 2 0 2 C0 1.34 0 0.68 0 0 Z " fill="#3F6C70" transform="translate(218,300)"/>
<path d="M0 0 C0.66 0.33 1.32 0.66 2 1 C1.67 2.65 1.34 4.3 1 6 C-0.65 5.67 -2.3 5.34 -4 5 C-4 4.34 -4 3.68 -4 3 C-3.34 3 -2.68 3 -2 3 C-2 2.34 -2 1.68 -2 1 C-1.34 0.67 -0.68 0.34 0 0 Z " fill="#3F7980" transform="translate(224,295)"/>
<path d="M0 0 C0.99 0 1.98 0 3 0 C2 2 1 4 0 6 C-0.66 6 -1.32 6 -2 6 C-2 6.66 -2 7.32 -2 8 C-2.66 8 -3.32 8 -4 8 C-3.40353695 4.65980694 -2.31705841 2.49529367 0 0 Z " fill="#376165" transform="translate(247,345)"/>
<path d="M0 0 C2.78637633 4.1795645 1.79562512 6.14668677 1 11 C-1 9 -1 9 -1.23046875 7.08984375 C-1.11111111 1.11111111 -1.11111111 1.11111111 0 0 Z " fill="#558D92" transform="translate(206,315)"/>
<path d="M0 0 C0.33 0.66 0.66 1.32 1 2 C0.0625 4.625 0.0625 4.625 -1 7 C-2.65 6.67 -4.3 6.34 -6 6 C-5.34 5.01 -4.68 4.02 -4 3 C-3.34 3 -2.68 3 -2 3 C-2 2.34 -2 1.68 -2 1 C-1.34 0.67 -0.68 0.34 0 0 Z " fill="#4D9195" transform="translate(278,215)"/>
<path d="M0 0 C2 0 4 0 6 0 C6 0.66 6 1.32 6 2 C5.34 2 4.68 2 4 2 C4 2.66 4 3.32 4 4 C2.02 4.99 2.02 4.99 0 6 C-1.125 2.25 -1.125 2.25 0 0 Z " fill="#42898D" transform="translate(265,168)"/>
<path d="M0 0 C1 3 1 3 0.22265625 5.04296875 C-0.16019531 5.75066406 -0.54304687 6.45835937 -0.9375 7.1875 C-1.31777344 7.90292969 -1.69804687 8.61835938 -2.08984375 9.35546875 C-2.54037109 10.16951172 -2.54037109 10.16951172 -3 11 C-3.66 11 -4.32 11 -5 11 C-3.77472971 6.94718288 -2.30119506 3.55639236 0 0 Z " fill="#498488" transform="translate(241,159)"/>
<path d="M0 0 C0.66 0.66 1.32 1.32 2 2 C1.67 2.99 1.34 3.98 1 5 C0.34 5 -0.32 5 -1 5 C-1.66 6.32 -2.32 7.64 -3 9 C-3 7.02 -3 5.04 -3 3 C-2.01 2.67 -1.02 2.34 0 2 C0 1.34 0 0.68 0 0 Z " fill="#53A8AD" transform="translate(238,249)"/>
<path d="M0 0 C0.66 0.33 1.32 0.66 2 1 C0.25 4.875 0.25 4.875 -2 6 C-3.13350534 8.01669827 -3.13350534 8.01669827 -4 10 C-3.38461538 3.47692308 -3.38461538 3.47692308 -1.4375 1.0625 C-0.7259375 0.5365625 -0.7259375 0.5365625 0 0 Z " fill="#4C8489" transform="translate(238,246)"/>
<path d="M0 0 C1.32 0.33 2.64 0.66 4 1 C2.35 2.65 0.7 4.3 -1 6 C-1.33 5.01 -1.66 4.02 -2 3 C-1.34 2.01 -0.68 1.02 0 0 Z " fill="#448086" transform="translate(270,204)"/>
</svg>
